<?xml version="1.0" encoding="utf-8"?>
<!-- Generator: Adobe Illustrator 25.0.1, SVG Export Plug-In . SVG Version: 6.00 Build 0)  -->
<svg version="1.1" id="Layer_1" xmlns="http://www.w3.org/2000/svg" xmlns:xlink="http://www.w3.org/1999/xlink" x="0px" y="0px"
	 viewBox="0 0 283.5 283.5" style="enable-background:new 0 0 283.5 283.5;" xml:space="preserve">
<style type="text/css">
	.st0{fill:#C04979;}
	.st1{fill:#E6E7E8;}
	.st2{fill:#FFF4DF;}
	.st3{fill:#E2D5BA;}
	.st4{fill:#603913;}
	.st5{fill:#BCBEC0;}
</style>
<g>
	<path class="st0" d="M283.5,141.8c0,32.3-10.8,62.1-29,85.9c-0.4,0.5-0.7,1-1.1,1.4c-2.1,2.7-4.3,5.3-6.5,7.8
		c-21.4,23.6-50.5,39.9-83.4,44.9c-7.1,1.1-14.3,1.7-21.7,1.7c-5.5,0-11-0.3-16.4-0.9c-35.7-4.1-67.4-21.5-90-47.1
		c-0.8-0.9-1.5-1.7-2.2-2.6c-0.6-0.7-1.2-1.4-1.8-2.2C11.7,206.4,0,175.5,0,141.8C0,63.5,63.5,0.1,141.7,0.1
		C220,0.1,283.5,63.5,283.5,141.8z"/>
	<path class="st1" d="M254.4,227.7c-0.4,0.5-0.7,1-1.1,1.4c-2.1,2.7-4.3,5.3-6.5,7.8c-21.4,23.6-50.5,39.9-83.4,44.9
		c-7.1,1.1-14.3,1.7-21.7,1.7c-5.5,0-11-0.3-16.4-0.9c-35.7-4.1-67.4-21.5-90-47.1c-0.8-0.9-1.5-1.7-2.2-2.6
		c-0.6-0.7-1.2-1.4-1.8-2.2c9.7-16.7,35.7-30.1,69.3-36.5c3.8-0.7,7.6-1.3,11.6-1.8c1.3-0.2,2.5-0.3,3.8-0.5
		c8.9-1,18.2-1.6,27.8-1.6c9.6,0,18.9,0.5,27.7,1.6c1.9,0.2,3.9,0.5,5.8,0.7c3.5,0.5,7,1.1,10.4,1.7
		C219,200.4,243.6,212.6,254.4,227.7z"/>
	<path class="st2" d="M179.2,180.3c0,21.2-15.4,38.5-34.4,38.5c-19,0-34.4-17.2-34.4-38.5c0-5.3,1-10.4,2.7-15
		c5.2-13.8,17.4-23.5,31.7-23.5c14,0,26.1,9.4,31.4,22.9C178.2,169.5,179.2,174.8,179.2,180.3z"/>
	<path class="st3" d="M176.3,164.7c-8.5,10.7-19.6,17.3-31.8,17.3c-11.9,0-22.9-6.3-31.3-16.7c5.2-13.8,17.4-23.5,31.7-23.5
		C158.9,141.8,170.9,151.2,176.3,164.7z"/>
	<ellipse class="st2" cx="143.9" cy="105.6" rx="50.6" ry="70.4"/>
	<ellipse transform="matrix(0.8927 -0.4507 0.4507 0.8927 -46.057 54.4481)" class="st2" cx="91.3" cy="123.9" rx="9.3" ry="16.5"/>
	
		<ellipse transform="matrix(0.5949 -0.8038 0.8038 0.5949 -22.0222 207.3303)" class="st2" cx="194.7" cy="125.5" rx="17" ry="9.4"/>
	<path class="st4" d="M103.9,45.6c0,0,2.6-14.6,15.9-20.4s33-2.9,33-2.9s-6,1.7-11.1,4.6c-5.1,2.9-8,5.8-8,5.8s11.6-7,26.1-5.8
		s26.1,11,26.1,11l-12.7-2.7c0,0,18,6.7,24.9,16.6s9.8,18.5,10.4,24.3c0.6,5.8,0,14.5,0,14.5l-4.1-10.4c0,0,1.2,15.4-1.7,25.4
		c-2.9,9.9-13.3,24.4-13.3,24.4s11.6-37.7-5.8-48.7s-27.7-1.7-27.7-1.7l3.3-7.5c0,0-8.1,11.6-30.1,7.5S108.8,64,108.8,64
		s1.2,8.7-1.7,16.8S97.3,99,95.7,105.6c-1.7,6.6,0,18.4,0,18.4s-11.2-20.6-11.2-27.5c0-7,2.3-20.6,2.3-20.6l-7,5.6
		c0,0,1.7-18.5,6.4-23.8S99,50.1,99,50.1s-0.6-2.8-3.4-4.5C92.9,44,89.2,43,89.2,43s6.3-0.4,8.5,0.9c2.2,1.3,3.8,3.5,3.8,3.5
		s-0.4-3.2-0.4-5.5s1.2-8.4,1.2-8.4s0.1,5.5,0.4,7.2c0.3,1.7,0.5,3.2,0.5,3.2L103.9,45.6z"/>
	<polygon class="st0" points="122.7,209.1 132.6,226.6 156.1,226.6 165.5,209.1 131.3,206.9 	"/>
	<path class="st0" d="M163.4,281.9c-7.1,1.1-14.3,1.7-21.7,1.7c-5.5,0-11-0.3-16.4-0.9l7.2-54.2h24.2L163.4,281.9z"/>
	<path class="st5" d="M169.7,194c8.9-9.1,9.6-17.6,9.1-19.9c-0.9-3.7,7.3,8.1,8.5,14.8c0.7,4.4,1.4,18.9-0.2,26.5
		c-1.6,7.6-7.8,15.3-7.8,15.3s-2.1-13.7-11.9-17.5c-9.8-3.8-35-7.6-44.8,1.1c-9.8,8.7-14.2,16.4-14.2,16.4s-7.1-18.2-7.6-25.2
		c-0.5-7-0.4-17.2,3.4-24.4c11.5-15.3,5-7.8,7.4,1.4c5.9,21.9,32.8,24.2,32.8,24.2S162.1,201.7,169.7,194z"/>
</g>
</svg>
