<?xml version="1.0" encoding="utf-8"?>
<!-- Generator: Adobe Illustrator 25.0.1, SVG Export Plug-In . SVG Version: 6.00 Build 0)  -->
<svg version="1.1" id="Layer_1" xmlns="http://www.w3.org/2000/svg" xmlns:xlink="http://www.w3.org/1999/xlink" x="0px" y="0px"
	 viewBox="0 0 283.5 283.5" style="enable-background:new 0 0 283.5 283.5;" xml:space="preserve">
<style type="text/css">
	.st0{fill:#C04979;}
	.st1{fill:#FFF4DF;}
	.st2{fill:#E2D5BA;}
	.st3{fill:none;stroke:#603913;stroke-width:8.6903;stroke-miterlimit:10;}
	.st4{fill:#603913;}
	.st5{fill:#BCBEC0;}
	.st6{fill:#F1F2F2;}
</style>
<g>
	<path class="st0" d="M283.2,141.8c0,32.9-11.2,63.2-30.1,87.2c-2.1,2.7-4.3,5.3-6.5,7.8c-6.8,7.5-14.4,14.3-22.7,20.2
		c-23.2,16.6-51.5,26.3-82.2,26.3c-24.2,0-46.9-6.1-66.9-16.8c-0.6-0.3-1.2-0.7-1.8-1c-14.2-7.9-26.8-18.1-37.5-30.2
		c-0.8-0.8-1.5-1.7-2.2-2.6c-20.6-24.6-33.1-56.3-33.1-90.9C0.3,63.7,63.6,0.4,141.7,0.4C219.9,0.4,283.2,63.7,283.2,141.8z"/>
	<path class="st1" d="M223.9,257c-23.2,16.6-51.5,26.3-82.2,26.3c-24.2,0-46.9-6.1-66.9-16.8c-0.7-2.2-1.1-4.6-1-7
		c0-0.8,0.1-1.6,0.2-2.4c4.2-28.1,16.7-49,27.2-59.8c1.7-1.8,3.4-3.3,5-4.5c6.2-4.8,10.6-5.8,13.9-6.2c0.2,0,0.4,0,0.6-0.1
		c2.4-0.2,4.1-0.2,5.5-1.2c1.1-0.8,1.5-4,1.5-8c0.1-8.5-1.5-20.4-1.5-20.4h36.1c0,0-0.9,10-1.2,18.7c-0.2,5.8-0.2,11,0.6,12.2
		c0.5,0.8,1.3,0.9,2.5,0.8c0.2,0,0.5-0.1,0.8-0.1c3.5-0.5,9.9-2,20.8,3c9.5,4.4,24.9,35.6,35.8,60.4
		C222.5,253.7,223.2,255.4,223.9,257z"/>
	<path class="st2" d="M162.5,157c0,0-0.9,10-1.2,18.7c-5.7,2.9-11.9,4.6-18.3,4.6c-5.3,0-10.4-1-15.1-2.8c0.1-8.5-1.5-20.4-1.5-20.4
		H162.5z"/>
	<path class="st1" d="M195.6,105.8c0,31.7-24.5,64.5-52.8,64.5c-30.4,0-52.8-32.7-52.8-64.5s23.7-57.5,52.8-57.5
		S195.6,74,195.6,105.8z"/>
	<ellipse transform="matrix(0.3821 -0.9241 0.9241 0.3821 10.5684 254.5282)" class="st1" cx="195.6" cy="119.4" rx="13" ry="8.7"/>
	<ellipse transform="matrix(0.9037 -0.4282 0.4282 0.9037 -43.1022 51.4891)" class="st1" cx="92.9" cy="121.6" rx="8.7" ry="13"/>
	<path class="st3" d="M95.7,102.1c0,0-6.7,14.4,0,19.5c6.7,5.1,24.1,11.4,24.1,21.3c0,8.7-14.3,11.7-16.8,22.9
		c-2.5,11.1,4.4,24.7,13.1,31.5"/>
	<path class="st4" d="M156.3,77.3c0,0,18.7,37.7,39.3,28.4s7-47-12.8-57.5s-78.5-6.2-89.9,17.3s-12.8,47.4-1.6,53.8
		C102.5,125.8,146.7,100.6,156.3,77.3z"/>
	<circle class="st4" cx="146.1" cy="33.5" r="19.7"/>
	<circle class="st4" cx="134.2" cy="36.8" r="11.9"/>
	<path class="st5" d="M221.8,252.1c-22.8,15.6-50.3,24.8-80,24.8c-24.2,0-46.9-6.1-66.9-16.8c-0.3-0.2-0.6-0.3-1-0.5
		c0-0.8,0.1-1.6,0.2-2.4c4.2-28.1,16.7-49,27.2-59.8c1.7-1.8,3.4-3.3,5-4.5c6.2-4.8,10.6-5.8,13.9-6.2c0.2,0,0.4,0,0.6-0.1
		c0.9,7.5,2.5,16.9,5.5,23.3c5.9,12.4,19.7,30.3,19.7,30.3s11.5-21.6,15.2-35.2c1.4-5.3,2.5-11.1,3.2-16.3c0.2,0,0.5-0.1,0.8-0.1
		c3.5-0.5,9.9-2,20.8,3C195.5,196,210.8,227.3,221.8,252.1z"/>
	<path class="st6" d="M223.9,257c-23.2,16.6-51.5,26.3-82.2,26.3c-24.2,0-46.9-6.1-66.9-16.8c-0.6-0.3-1.2-0.7-1.8-1
		c0.3-2.5,0.6-5.2,1.1-8.3c3.8-25.5,14.4-45,24.2-56.5c0.7-0.8,1.3-1.5,2-2.2c0.3-0.4,0.7-0.7,1-1c1.7-1.8,3.4-3.3,5-4.5
		c6.2-4.8,10.6-5.8,13.9-6.2c0.6,7.8,2.2,21.3,6.1,29.6c5.9,12.4,19.7,30.3,19.7,30.3s11.5-21.6,15.2-35.2
		c2.1-7.7,3.3-16.5,3.9-22.8c3.5-0.5,9.9-2,20.8,3C196.1,196.3,212.9,231.6,223.9,257z"/>
</g>
</svg>
