<?xml version="1.0" encoding="utf-8"?>
<!-- Generator: Adobe Illustrator 25.0.1, SVG Export Plug-In . SVG Version: 6.00 Build 0)  -->
<svg version="1.1" id="Layer_1" xmlns="http://www.w3.org/2000/svg" xmlns:xlink="http://www.w3.org/1999/xlink" x="0px" y="0px"
	 viewBox="0 0 283.5 283.5" style="enable-background:new 0 0 283.5 283.5;" xml:space="preserve">
<style type="text/css">
	.st0{fill:#C04979;}
	.st1{fill:#E6E7E8;}
	.st2{fill:#FFF4DF;}
	.st3{fill:#E2D5BA;}
	.st4{fill:#603913;}
	.st5{fill:#C49A6C;}
	.st6{fill:#A7A9AC;}
</style>
<g>
	<path class="st0" d="M283.5,141.8c0,33-11.3,63.3-30.1,87.4c-2.1,2.7-4.3,5.3-6.5,7.8c-25.9,28.6-63.4,46.6-105.1,46.6
		c-42.4,0-80.4-18.6-106.4-48.1c-0.8-0.9-1.5-1.7-2.2-2.6C12.4,208.2,0,176.5,0,141.8C0,63.5,63.5,0.1,141.7,0.1
		C220,0.1,283.5,63.5,283.5,141.8z"/>
	<path class="st1" d="M253.3,229.2c-2.1,2.7-4.3,5.3-6.5,7.8c-25.9,28.6-63.4,46.6-105.1,46.6c-42.4,0-80.4-18.6-106.4-48.1
		c-0.8-0.9-1.5-1.7-2.2-2.6c21.2-28,63.2-47.1,111.6-47.1C190.9,185.8,231.3,203.2,253.3,229.2z"/>
	<path class="st2" d="M177.7,181c0,8.6-1.4,16.6-3.8,23.7h-59c-2.4-7.1-3.8-15.2-3.8-23.7c0-3.3,0.2-6.5,0.6-9.6
		c2.9-23.6,16.4-41.5,32.7-41.5c16.5,0,30.3,18.5,32.8,42.8C177.6,175.4,177.7,178.2,177.7,181z"/>
	<path class="st3" d="M177.3,172.7c-10.2,12.5-23.4,21.3-33,20.9c-11.1-0.5-20.6-4.7-32.5-22.1c2.9-23.6,16.4-41.5,32.7-41.5
		C161,129.9,174.7,148.5,177.3,172.7z"/>
	
		<ellipse transform="matrix(0.3443 -0.9389 0.9389 0.3443 7.7226 266.7395)" class="st2" cx="194.8" cy="127.8" rx="16.1" ry="8.2"/>
	
		<ellipse transform="matrix(0.9193 -0.3936 0.3936 0.9193 -42.7122 47.3994)" class="st2" cx="94.2" cy="127.8" rx="8.2" ry="16.1"/>
	<path class="st4" d="M170.4,38.6c0,0-5.4-18.1-20-19.1c-14.7-1-53.8,1.5-68.9,49.9S89,65,89,65S75.7,94.1,96,135.7
		s32.7,49.4,48.3,50.1c15.6,0.7,40.5-22.7,46.9-47.2s26.2-79.9,9.8-95.6c0,0-3.9-6.4-15.2-6.8C174.5,35.7,170.4,38.6,170.4,38.6z"/>
	<path class="st2" d="M194.3,112c-2.6,21.8-19.4,54.7-49.1,54.7c-28.5,0-48.1-30-49.1-54.7c-0.1-2.7-0.8-27.2,17.1-41.1
		c12.4-9.5,27-8.9,39.6-8.3c11.5,0.5,20.8,0.9,28.8,7.3C197.8,82.8,194.7,108.6,194.3,112z"/>
	<polygon class="st4" points="119.7,163.9 125.2,149.6 162.9,149.6 169.9,163.9 144.8,171.6 	"/>
	<path class="st5" d="M144.2,157.1h15.2c0,4.1-6.9,7.5-15.2,7.5s-15.2-3.4-15.2-7.5c0,0,0-0.1,0-0.1L144.2,157.1z"/>
	<path class="st6" d="M110.7,177c0,0-8.3,10.3-8.3,19.1s8.3,30.8,8.3,30.8s2.9-15.6,12.2-17.6s21.2-4.4,21.2-4.4
		s-16.1-0.5-24.5-10.3S110.7,177,110.7,177z"/>
	<path class="st6" d="M177.7,177c0,0,8.3,10.3,8.3,19.1s-8.3,30.8-8.3,30.8s-2.9-15.6-12.2-17.6c-9.3-2-21.2-4.4-21.2-4.4
		s16.1-0.5,24.5-10.3C177.2,184.8,177.7,177,177.7,177z"/>
</g>
</svg>
